<svg id="visual" viewBox="0 0 900 600" width="900" height="600" xmlns="http://www.w3.org/2000/svg" xmlns:xlink="http://www.w3.org/1999/xlink" version="1.1"><path d="M0 370L21.5 370.8C43 371.7 86 373.3 128.8 366C171.7 358.7 214.3 342.3 257.2 337.3C300 332.3 343 338.7 385.8 345.5C428.7 352.3 471.3 359.7 514.2 356.2C557 352.7 600 338.3 642.8 330.3C685.7 322.3 728.3 320.7 771.2 326.3C814 332 857 345 878.5 351.5L900 358L900 601L878.5 601C857 601 814 601 771.2 601C728.3 601 685.7 601 642.8 601C600 601 557 601 514.2 601C471.3 601 428.7 601 385.8 601C343 601 300 601 257.2 601C214.3 601 171.7 601 128.8 601C86 601 43 601 21.5 601L0 601Z" fill="#deebd5"></path><path d="M0 445L21.5 444C43 443 86 441 128.8 443.5C171.7 446 214.3 453 257.2 456.3C300 459.7 343 459.3 385.8 462.3C428.7 465.3 471.3 471.7 514.2 472.7C557 473.7 600 469.3 642.8 463C685.7 456.7 728.3 448.3 771.2 451.2C814 454 857 468 878.5 475L900 482L900 601L878.5 601C857 601 814 601 771.2 601C728.3 601 685.7 601 642.8 601C600 601 557 601 514.2 601C471.3 601 428.7 601 385.8 601C343 601 300 601 257.2 601C214.3 601 171.7 601 128.8 601C86 601 43 601 21.5 601L0 601Z" fill="#eff1e0"></path></svg>