<?xml version="1.0" encoding="UTF-8" standalone="no"?>
<!DOCTYPE svg PUBLIC "-//W3C//DTD SVG 1.1//EN" "http://www.w3.org/Graphics/SVG/1.1/DTD/svg11.dtd">
<svg width="100%" height="100%" viewBox="0 0 64 64" version="1.1" xmlns="http://www.w3.org/2000/svg" xmlns:xlink="http://www.w3.org/1999/xlink" xml:space="preserve" style="fill-rule:evenodd;clip-rule:evenodd;stroke-linejoin:round;stroke-miterlimit:2;">
    <path d="M52,52L9.5,52C6.75,52 4.5,49.75 4.5,47L4.5,12L16.8,12C18.45,12 20.05,12.85 20.95,14.25L23,17.3C23.95,18.7 25.5,19.55 27.15,19.55L44.5,19.55C47.25,19.55 49.5,21.8 49.5,24.55L49.5,46C49.5,48.25 50.4,50.4 52,52Z" style="fill:white;fill-rule:nonzero;"/>
    <path d="M50.1,53.5L9.5,53.5C5.9,53.5 3,50.6 3,47L3,12C3,11.15 3.65,10.5 4.5,10.5L16.8,10.5C19,10.5 21,11.6 22.2,13.4L24.25,16.45C24.9,17.45 26,18 27.15,18L44.5,18C48.1,18 51,20.9 51,24.5L51,42C51,42.85 50.35,43.5 49.5,43.5C48.65,43.5 48,42.85 48,42L48,24.5C48,22.55 46.45,21 44.5,21L27.2,21C25,21 23,19.9 21.8,18.1L19.75,15.05C19.1,14.05 18,13.5 16.85,13.5L6,13.5L6,47C6,48.95 7.55,50.5 9.5,50.5L50.1,50.5C51.85,50.5 53.35,49.2 53.55,47.45L56.55,47.8C56.15,51.05 53.35,53.5 50.1,53.5Z" style="fill:rgb(69,75,84);fill-rule:nonzero;"/>
</svg>
