<svg xmlns="http://www.w3.org/2000/svg"  viewBox="0 0 128 128" width="64px" height="64px"><circle cx="64" cy="64" r="55" fill="#fff"/><path fill="#444b54" d="M64,122C32,122,6,96,6,64S32,6,64,6s58,26,58,58S96,122,64,122z M64,12c-28.7,0-52,23.3-52,52s23.3,52,52,52 s52-23.3,52-52S92.7,12,64,12z"/><path fill="#444b54" d="M64,90c-1.7,0-3-1.3-3-3V61c0-1.7,1.3-3,3-3s3,1.3,3,3v26C67,88.7,65.7,90,64,90z"/><path fill="#444b54" d="M64,49c-1.7,0-3-1.3-3-3v-5c0-1.7,1.3-3,3-3s3,1.3,3,3v5C67,47.7,65.7,49,64,49z"/></svg>