<svg xmlns="http://www.w3.org/2000/svg"  viewBox="0 0 100 100" width="100px" height="100px"><path fill="#c7ede6" d="M87.215,56.71C88.35,54.555,89,52.105,89,49.5c0-6.621-4.159-12.257-10.001-14.478	C78.999,35.015,79,35.008,79,35c0-11.598-9.402-21-21-21c-9.784,0-17.981,6.701-20.313,15.757C36.211,29.272,34.638,29,33,29	c-7.692,0-14.023,5.793-14.89,13.252C12.906,43.353,9,47.969,9,53.5C9,59.851,14.149,65,20.5,65c0.177,0,0.352-0.012,0.526-0.022	C21.022,65.153,21,65.324,21,65.5C21,76.822,30.178,86,41.5,86c6.437,0,12.175-2.972,15.934-7.614C59.612,80.611,62.64,82,66,82	c4.65,0,8.674-2.65,10.666-6.518C77.718,75.817,78.837,76,80,76c6.075,0,11-4.925,11-11C91,61.689,89.53,58.727,87.215,56.71z"/><path fill="#fff" d="M15.405,56H5.5C5.224,56,5,55.776,5,55.5S5.224,55,5.5,55h9.905c0.276,0,0.5,0.224,0.5,0.5	S15.682,56,15.405,56z M18.5,56h-1c-0.276,0-0.5-0.224-0.5-0.5s0.224-0.5,0.5-0.5h1c0.276,0,0.5,0.224,0.5,0.5S18.777,56,18.5,56z M23.491,58H14.5c-0.276,0-0.5-0.224-0.5-0.5s0.224-0.5,0.5-0.5h8.991c0.276,0,0.5,0.224,0.5,0.5S23.767,58,23.491,58z M12.5,58h-1	c-0.276,0-0.5-0.224-0.5-0.5s0.224-0.5,0.5-0.5h1c0.276,0,0.5,0.224,0.5,0.5S12.777,58,12.5,58z M9.5,58h-2	C7.224,58,7,57.776,7,57.5S7.224,57,7.5,57h2c0.276,0,0.5,0.224,0.5,0.5S9.777,58,9.5,58z M15.5,60h-2c-0.276,0-0.5-0.224-0.5-0.5	s0.224-0.5,0.5-0.5h2c0.276,0,0.5,0.224,0.5,0.5S15.776,60,15.5,60z M18.5,51c-0.177,0-0.823,0-1,0c-0.276,0-0.5,0.224-0.5,0.5	s0.224,0.5,0.5,0.5c0.177,0,0.823,0,1,0c0.276,0,0.5-0.224,0.5-0.5S18.776,51,18.5,51z M18.5,53c-0.177,0-4.823,0-5,0	c-0.276,0-0.5,0.224-0.5,0.5s0.224,0.5,0.5,0.5c0.177,0,4.823,0,5,0c0.276,0,0.5-0.224,0.5-0.5S18.776,53,18.5,53z M23.5,55	c-0.177,0-2.823,0-3,0c-0.276,0-0.5,0.224-0.5,0.5s0.224,0.5,0.5,0.5c0.177,0,2.823,0,3,0c0.276,0,0.5-0.224,0.5-0.5	S23.776,55,23.5,55z"/><path fill="#fff" d="M85.5,45h-10c-0.276,0-0.5-0.224-0.5-0.5s0.224-0.5,0.5-0.5h10c0.276,0,0.5,0.224,0.5,0.5 S85.776,45,85.5,45z M89.5,45h-2c-0.276,0-0.5-0.224-0.5-0.5s0.224-0.5,0.5-0.5h2c0.276,0,0.5,0.224,0.5,0.5S89.776,45,89.5,45z M94.5,47h-10c-0.276,0-0.5-0.224-0.5-0.5s0.224-0.5,0.5-0.5h10c0.276,0,0.5,0.224,0.5,0.5S94.777,47,94.5,47z M82.5,47h-1 c-0.276,0-0.5-0.224-0.5-0.5s0.224-0.5,0.5-0.5h1c0.276,0,0.5,0.224,0.5,0.5S82.776,47,82.5,47z M79.375,47H77.5 c-0.276,0-0.5-0.224-0.5-0.5s0.224-0.5,0.5-0.5h1.875c0.276,0,0.5,0.224,0.5,0.5S79.651,47,79.375,47z M88.5,43h-5 c-0.276,0-0.5-0.224-0.5-0.5s0.224-0.5,0.5-0.5h5c0.276,0,0.5,0.224,0.5,0.5S88.777,43,88.5,43z M85.5,49h-2 c-0.276,0-0.5-0.224-0.5-0.5s0.224-0.5,0.5-0.5h2c0.276,0,0.5,0.224,0.5,0.5S85.776,49,85.5,49z"/><path fill="#fdfcef" d="M29.5,34.5c0,0,1.567,0,3.5,0s3.5-1.567,3.5-3.5c0-1.781-1.335-3.234-3.055-3.455 C33.473,27.366,33.5,27.187,33.5,27c0-1.933-1.567-3.5-3.5-3.5c-1.032,0-1.95,0.455-2.59,1.165 c-0.384-1.808-1.987-3.165-3.91-3.165c-2.209,0-4,1.791-4,4c0,0.191,0.03,0.374,0.056,0.558C19.128,25.714,18.592,25.5,18,25.5 c-1.228,0-2.245,0.887-2.455,2.055C15.366,27.527,15.187,27.5,15,27.5c-1.933,0-3.5,1.567-3.5,3.5s1.567,3.5,3.5,3.5s7.5,0,7.5,0 V35h7V34.5z"/><path fill="#472b29" d="M31.25,30C31.112,30,31,29.888,31,29.75c0-1.223,0.995-2.218,2.218-2.218 c0.034,0.009,0.737-0.001,1.244,0.136c0.133,0.036,0.212,0.173,0.176,0.306c-0.036,0.134-0.173,0.213-0.306,0.176 c-0.444-0.12-1.1-0.12-1.113-0.118c-0.948,0-1.719,0.771-1.719,1.718C31.5,29.888,31.388,30,31.25,30z M24.5,34 c-0.276,0-0.5,0.224-0.5,0.5s0.224,0.5,0.5,0.5s0.5-0.224,0.5-0.5S24.776,34,24.5,34z"/><path fill="#472b29" d="M33,35h-3.5c-0.276,0-0.5-0.224-0.5-0.5s0.224-0.5,0.5-0.5H33c1.654,0,3-1.346,3-3 c0-1.496-1.125-2.768-2.618-2.959c-0.134-0.018-0.255-0.088-0.336-0.196s-0.115-0.244-0.094-0.377C32.975,27.314,33,27.16,33,27 c0-1.654-1.346-3-3-3c-0.85,0-1.638,0.355-2.219,1c-0.125,0.139-0.321,0.198-0.5,0.148c-0.182-0.049-0.321-0.195-0.36-0.379 C26.58,23.165,25.141,22,23.5,22c-1.93,0-3.5,1.57-3.5,3.5c0,0.143,0.021,0.28,0.041,0.418c0.029,0.203-0.063,0.438-0.242,0.54 c-0.179,0.102-0.396,0.118-0.556-0.01C18.878,26.155,18.449,26,18,26c-0.966,0-1.792,0.691-1.963,1.644 c-0.048,0.267-0.296,0.446-0.569,0.405C15.314,28.025,15.16,28,15,28c-1.654,0-3,1.346-3,3s1.346,3,3,3h7.5 c0.276,0,0.5,0.224,0.5,0.5S22.776,35,22.5,35H15c-2.206,0-4-1.794-4-4s1.794-4,4-4c0.059,0,0.116,0.002,0.174,0.006 C15.588,25.82,16.711,25,18,25c0.349,0,0.689,0.061,1.011,0.18C19.176,22.847,21.126,21,23.5,21c1.831,0,3.466,1.127,4.153,2.774 C28.333,23.276,29.155,23,30,23c2.206,0,4,1.794,4,4c0,0.048-0.001,0.095-0.004,0.142C35.739,27.59,37,29.169,37,31 C37,33.206,35.206,35,33,35z"/><path fill="#472b29" d="M27.5,34c-0.159,0-0.841,0-1,0c-0.276,0-0.5,0.224-0.5,0.5s0.224,0.5,0.5,0.5c0.159,0,0.841,0,1,0 c0.276,0,0.5-0.224,0.5-0.5S27.776,34,27.5,34z"/><path fill="#f1bc19" d="M60.5,28.927c-4.242,0-8.025,5.671-10.499,14.539c-2.475-8.868-6.26-14.539-10.5-14.539	C32.046,28.927,26,47.797,26,71.073h5.854c0-21.614,3.506-38.634,7.647-38.634c4.107,0,7.516,15.403,7.572,35.122h5.854	c0.056-19.719,3.467-35.122,7.573-35.122c4.142,0,7.646,17.02,7.646,38.634H74C74,47.797,67.956,28.927,60.5,28.927z"/><path fill="#472b29" d="M74,71.773h-5.854c-0.387,0-0.7-0.313-0.7-0.7c0-23.503-4.046-37.934-6.946-37.934	c-3.204,0-6.815,14.137-6.873,34.423c-0.001,0.386-0.314,0.698-0.7,0.698h-5.854c-0.386,0-0.699-0.312-0.7-0.698	c-0.058-20.286-3.668-34.423-6.872-34.423c-2.901,0-6.947,14.431-6.947,37.934c0,0.387-0.313,0.7-0.7,0.7H26	c-0.387,0-0.7-0.313-0.7-0.7c0-24.026,6.238-42.847,14.201-42.847c4.074,0,7.844,4.634,10.5,12.812	c2.654-8.177,6.425-12.812,10.499-12.812c7.963,0,14.2,18.821,14.2,42.847C74.7,71.46,74.387,71.773,74,71.773z M68.845,70.373	h4.453c-0.119-22.16-5.932-40.746-12.798-40.746c-3.702,0-7.375,5.244-9.825,14.027c-0.084,0.303-0.359,0.512-0.674,0.512	c-0.314,0-0.59-0.209-0.674-0.512c-2.452-8.783-6.125-14.027-9.826-14.027c-6.867,0-12.679,18.586-12.799,40.746h4.454	c0.07-18.861,2.99-38.634,8.346-38.634c5.236,0,8.145,17.964,8.269,35.122h4.461c0.125-17.158,3.033-35.122,8.27-35.122	C65.855,31.739,68.774,51.512,68.845,70.373z"/><path fill="#fdfcef" d="M83.875,79.5c0,0,3.64,0,6.125,0s4.5-2.015,4.5-4.5c0-2.333-1.782-4.229-4.055-4.455	C90.467,70.364,90.5,70.187,90.5,70c0-2.485-2.015-4.5-4.5-4.5c-1.438,0-2.703,0.686-3.527,1.736C82.333,64.6,80.171,62.5,77.5,62.5	c-2.761,0-5,2.239-5,5c0,0.446,0.077,0.87,0.187,1.282C72.045,68.005,71.086,67.5,70,67.5c-1.781,0-3.234,1.335-3.455,3.055	C66.364,70.533,66.187,70.5,66,70.5c-2.485,0-4.5,2.015-4.5,4.5s2.015,4.5,4.5,4.5s9.5,0,9.5,0h5.375V80h3V79.5z"/><path fill="#472b29" d="M77.5,62c-3.033,0-5.5,2.467-5.5,5.5c0,0.016,0,0.031,0,0.047C71.398,67.192,70.71,67,70,67	c-1.831,0-3.411,1.261-3.858,3.005C66.095,70.002,66.048,70,66,70c-2.757,0-5,2.243-5,5s2.243,5,5,5h14.875	c0.276,0,0.5-0.224,0.5-0.5s-0.224-0.5-0.5-0.5H66c-2.206,0-4-1.794-4-4s1.794-4,4-4c0.117,0,0.23,0.017,0.343,0.032l0.141,0.019	c0.021,0.003,0.041,0.004,0.062,0.004c0.246,0,0.462-0.185,0.495-0.437C67.232,69.125,68.504,68,70,68	c0.885,0,1.723,0.401,2.301,1.1c0.098,0.118,0.241,0.182,0.386,0.182c0.078,0,0.156-0.018,0.228-0.056	c0.209-0.107,0.314-0.346,0.254-0.573C73.054,68.218,73,67.852,73,67.5c0-2.481,2.019-4.5,4.5-4.5c2.381,0,4.347,1.872,4.474,4.263	c0.011,0.208,0.15,0.387,0.349,0.45c0.05,0.016,0.101,0.024,0.152,0.024c0.15,0,0.296-0.069,0.392-0.192	C83.638,66.563,84.779,66,86,66c2.206,0,4,1.794,4,4c0,0.117-0.017,0.23-0.032,0.343l-0.019,0.141	c-0.016,0.134,0.022,0.268,0.106,0.373s0.207,0.172,0.34,0.185C92.451,71.247,94,72.949,94,75c0,2.206-1.794,4-4,4h-6.125	c-0.276,0-0.5,0.224-0.5,0.5s0.224,0.5,0.5,0.5H90c2.757,0,5-2.243,5-5c0-2.397-1.689-4.413-4.003-4.877	C90.999,70.082,91,70.041,91,70c0-2.757-2.243-5-5-5c-1.176,0-2.293,0.416-3.183,1.164C82.219,63.76,80.055,62,77.5,62L77.5,62z"/><path fill="#472b29" d="M76,69c-1.403,0-2.609,0.999-2.913,2.341C72.72,71.119,72.301,71,71.875,71	c-1.202,0-2.198,0.897-2.353,2.068C69.319,73.022,69.126,73,68.938,73c-1.529,0-2.811,1.2-2.918,2.732	C66.01,75.87,66.114,75.99,66.251,76c0.006,0,0.012,0,0.018,0c0.13,0,0.24-0.101,0.249-0.232c0.089-1.271,1.151-2.268,2.419-2.268	c0.229,0,0.47,0.041,0.738,0.127c0.022,0.007,0.045,0.01,0.067,0.01c0.055,0,0.11-0.02,0.156-0.054	C69.962,73.537,70,73.455,70,73.375c0-1.034,0.841-1.875,1.875-1.875c0.447,0,0.885,0.168,1.231,0.473	c0.047,0.041,0.106,0.063,0.165,0.063c0.032,0,0.063-0.006,0.093-0.019c0.088-0.035,0.148-0.117,0.155-0.212	C73.623,70.512,74.712,69.5,76,69.5c0.208,0,0.425,0.034,0.682,0.107c0.023,0.007,0.047,0.01,0.07,0.01	c0.109,0,0.207-0.073,0.239-0.182c0.038-0.133-0.039-0.271-0.172-0.309C76.517,69.04,76.256,69,76,69L76,69z M89.883,70.5	c-1.326,0-2.508,0.897-2.874,2.182c-0.038,0.133,0.039,0.271,0.172,0.309C87.205,72.997,87.228,73,87.25,73	c0.109,0,0.209-0.072,0.24-0.182C87.795,71.748,88.779,71,89.883,71c0.117,0,0.23,0.014,0.342,0.029	c0.012,0.002,0.023,0.003,0.035,0.003c0.121,0,0.229-0.092,0.246-0.217c0.019-0.137-0.077-0.263-0.214-0.281	C90.158,70.516,90.022,70.5,89.883,70.5L89.883,70.5z"/><path fill="#472b29" d="M28.218,69.373c-0.002,0-0.005,0-0.008,0c-0.276-0.005-0.496-0.232-0.492-0.508	c0.01-0.634,0.025-1.26,0.044-1.881c0.009-0.276,0.245-0.478,0.516-0.484c0.276,0.009,0.493,0.239,0.484,0.516	c-0.019,0.615-0.034,1.237-0.044,1.865C28.713,69.154,28.49,69.373,28.218,69.373z M28.339,65.5c-0.008,0-0.016,0-0.024-0.001	c-0.276-0.013-0.489-0.247-0.476-0.522c0.032-0.678,0.069-1.347,0.11-2.008c0.017-0.275,0.236-0.502,0.53-0.468	c0.275,0.018,0.485,0.255,0.468,0.53c-0.041,0.655-0.077,1.32-0.109,1.992C28.826,65.292,28.604,65.5,28.339,65.5z M28.589,61.5	c-0.014,0-0.027-0.001-0.041-0.002c-0.275-0.022-0.48-0.264-0.458-0.539l0.084-1.002c0.044-0.509,0.093-1.011,0.143-1.507	c0.053-0.51,0.106-1.012,0.164-1.508c0.378-3.267,0.893-6.385,1.53-9.268c0.06-0.27,0.327-0.439,0.596-0.38	c0.27,0.06,0.44,0.327,0.38,0.596c-0.63,2.85-1.139,5.934-1.514,9.167c-0.057,0.492-0.11,0.99-0.162,1.494	c-0.05,0.49-0.098,0.988-0.142,1.491l-0.083,0.998C29.066,61.302,28.847,61.5,28.589,61.5z"/></svg>