<svg id="visual" viewBox="0 0 960 540" width="960" height="540" xmlns="http://www.w3.org/2000/svg" xmlns:xlink="http://www.w3.org/1999/xlink" version="1.1"><path d="M0 333L22.8 333.7C45.7 334.3 91.3 335.7 137 329C182.7 322.3 228.3 307.7 274 303.2C319.7 298.7 365.3 304.3 411.2 310.5C457 316.7 503 323.3 548.8 320.2C594.7 317 640.3 304 686 296.8C731.7 289.7 777.3 288.3 823 293.5C868.7 298.7 914.3 310.3 937.2 316.2L960 322L960 541L937.2 541C914.3 541 868.7 541 823 541C777.3 541 731.7 541 686 541C640.3 541 594.7 541 548.8 541C503 541 457 541 411.2 541C365.3 541 319.7 541 274 541C228.3 541 182.7 541 137 541C91.3 541 45.7 541 22.8 541L0 541Z" fill="#deebd5"></path><path d="M0 401L22.8 400C45.7 399 91.3 397 137 399.2C182.7 401.3 228.3 407.7 274 410.7C319.7 413.7 365.3 413.3 411.2 416C457 418.7 503 424.3 548.8 425.2C594.7 426 640.3 422 686 416.3C731.7 410.7 777.3 403.3 823 406C868.7 408.7 914.3 421.3 937.2 427.7L960 434L960 541L937.2 541C914.3 541 868.7 541 823 541C777.3 541 731.7 541 686 541C640.3 541 594.7 541 548.8 541C503 541 457 541 411.2 541C365.3 541 319.7 541 274 541C228.3 541 182.7 541 137 541C91.3 541 45.7 541 22.8 541L0 541Z" fill="#eff1e0"></path></svg>